<svg width="16" height="19" viewBox="0 0 16 19" xmlns="http://www.w3.org/2000/svg">
<g clip-path="url(#clip0_299_221)">
<path d="M8.00356 5.42709C5.73214 5.42709 3.89999 7.24396 3.89999 9.49646C3.89999 11.749 5.73214 13.5658 8.00356 13.5658C10.275 13.5658 12.1071 11.749 12.1071 9.49646C12.1071 7.24396 10.275 5.42709 8.00356 5.42709ZM8.00356 12.1421C6.53571 12.1421 5.33571 10.9556 5.33571 9.49646C5.33571 8.03729 6.53214 6.85084 8.00356 6.85084C9.47499 6.85084 10.6714 8.03729 10.6714 9.49646C10.6714 10.9556 9.47142 12.1421 8.00356 12.1421ZM13.2321 5.26063C13.2321 5.78834 12.8036 6.20979 12.275 6.20979C11.7428 6.20979 11.3178 5.78479 11.3178 5.26063C11.3178 4.73646 11.7464 4.31146 12.275 4.31146C12.8036 4.31146 13.2321 4.73646 13.2321 5.26063ZM15.95 6.22396C15.8893 4.9525 15.5964 3.82625 14.6571 2.89834C13.7214 1.97042 12.5857 1.68 11.3036 1.61625C9.98213 1.54188 6.02142 1.54188 4.69999 1.61625C3.42142 1.67646 2.28571 1.96688 1.34642 2.89479C0.407136 3.82271 0.11785 4.94896 0.0535644 6.22042C-0.0214355 7.53084 -0.0214355 11.4585 0.0535644 12.769C0.114279 14.0404 0.407136 15.1667 1.34642 16.0946C2.28571 17.0225 3.41785 17.3129 4.69999 17.3767C6.02142 17.451 9.98213 17.451 11.3036 17.3767C12.5857 17.3165 13.7214 17.026 14.6571 16.0946C15.5928 15.1667 15.8857 14.0404 15.95 12.769C16.025 11.4585 16.025 7.53438 15.95 6.22396ZM14.2428 14.175C13.9643 14.8692 13.425 15.404 12.7214 15.6838C11.6678 16.0981 9.16785 16.0025 8.00356 16.0025C6.83928 16.0025 4.33571 16.0946 3.28571 15.6838C2.58571 15.4075 2.04642 14.8727 1.76428 14.175C1.34642 13.1302 1.44285 10.651 1.44285 9.49646C1.44285 8.34188 1.34999 5.85917 1.76428 4.81792C2.04285 4.12375 2.58214 3.58896 3.28571 3.30917C4.33928 2.89479 6.83928 2.99042 8.00356 2.99042C9.16785 2.99042 11.6714 2.89834 12.7214 3.30917C13.4214 3.58542 13.9607 4.12021 14.2428 4.81792C14.6607 5.86271 14.5643 8.34188 14.5643 9.49646C14.5643 10.651 14.6607 13.1338 14.2428 14.175Z"/>
</g>
<defs>
<clipPath id="clip0_299_221">
<rect width="16" height="18.1333" transform="translate(0 0.433334)"/>
</clipPath>
</defs>
</svg>
