<svg width="16" height="19" viewBox="0 0 16 19" xmlns="http://www.w3.org/2000/svg">
<path d="M14.3554 6.67191C14.3655 6.81404 14.3655 6.95619 14.3655 7.09832C14.3655 11.4333 11.066 16.4283 5.03555 16.4283C3.17767 16.4283 1.45179 15.8902 0 14.9562C0.26397 14.9867 0.517752 14.9968 0.791878 14.9968C2.32485 14.9968 3.73605 14.4791 4.86296 13.5958C3.42133 13.5653 2.2132 12.6212 1.79694 11.3217C2.00001 11.3521 2.20304 11.3724 2.41626 11.3724C2.71067 11.3724 3.00511 11.3318 3.2792 11.2608C1.77666 10.9562 0.649721 9.63639 0.649721 8.04248V8.00188C1.08625 8.24554 1.59391 8.39782 2.13195 8.4181C1.24869 7.82926 0.670034 6.82419 0.670034 5.68712C0.670034 5.078 0.832441 4.51962 1.11672 4.03231C2.73095 6.02216 5.15736 7.32163 7.87816 7.46379C7.82741 7.22013 7.79694 6.96635 7.79694 6.71253C7.79694 4.9054 9.25888 3.43333 11.0761 3.43333C12.0203 3.43333 12.8731 3.82927 13.4721 4.46887C14.2132 4.32674 14.9238 4.05262 15.5533 3.67699C15.3096 4.43843 14.7919 5.07803 14.1117 5.48409C14.7716 5.41306 15.4112 5.23028 16 4.9765C15.5534 5.62622 14.995 6.20488 14.3554 6.67191Z"/>
</svg>
