<?xml version="1.0" encoding="utf-8"?><svg viewBox="0 0 20 23" xmlns="http://www.w3.org/2000/svg" xmlns:xlink="http://www.w3.org/1999/xlink"><style>:root>svg{display:none}:root>svg:target{display:block}</style><svg viewBox="0 0 16 19" id="fb" xmlns="http://www.w3.org/2000/svg"><path d="M16 9.548c0-4.419-3.58-8-8-8s-8 3.581-8 8a8.003 8.003 0 006.75 7.904V11.86H4.718V9.548H6.75V7.786c0-2.005 1.194-3.112 3.022-3.112.875 0 1.79.156 1.79.156v1.967h-1.008c-.994 0-1.304.617-1.304 1.25v1.501h2.219l-.355 2.313H9.25v5.59A8.003 8.003 0 0016 9.549z"/></svg><svg viewBox="0 0 16 19" id="inst" xmlns="http://www.w3.org/2000/svg"><g clip-path="url(#bclip0_299_221)"><path d="M8.004 5.427c-2.272 0-4.104 1.817-4.104 4.07 0 2.252 1.832 4.069 4.104 4.069 2.271 0 4.103-1.817 4.103-4.07 0-2.252-1.832-4.069-4.103-4.069zm0 6.715c-1.468 0-2.668-1.186-2.668-2.646 0-1.459 1.196-2.645 2.668-2.645 1.471 0 2.667 1.186 2.667 2.645 0 1.46-1.2 2.646-2.667 2.646zm5.228-6.881a.95.95 0 01-.957.949.951.951 0 01-.957-.95c0-.524.428-.949.957-.949.529 0 .957.425.957.95zm2.718.963c-.06-1.272-.354-2.398-1.293-3.326-.936-.928-2.071-1.218-3.353-1.282-1.322-.074-5.283-.074-6.604 0-1.279.06-2.414.35-3.354 1.279C.407 3.823.118 4.949.054 6.22c-.075 1.31-.075 5.239 0 6.549.06 1.271.353 2.398 1.292 3.326.94.928 2.072 1.218 3.354 1.282 1.321.074 5.282.074 6.604 0 1.282-.06 2.417-.351 3.353-1.282.936-.928 1.229-2.055 1.293-3.326.075-1.31.075-5.235 0-6.545zm-1.707 7.951a2.69 2.69 0 01-1.522 1.509c-1.053.414-3.553.319-4.717.319-1.165 0-3.668.092-4.718-.32a2.69 2.69 0 01-1.522-1.508c-.418-1.045-.321-3.524-.321-4.679 0-1.154-.093-3.637.321-4.678a2.69 2.69 0 011.522-1.509c1.053-.414 3.553-.319 4.718-.319 1.164 0 3.667-.092 4.717.32.7.275 1.24.81 1.522 1.508.418 1.045.321 3.524.321 4.678 0 1.155.097 3.638-.321 4.679z"/></g><defs><clipPath id="bclip0_299_221"><path transform="translate(0 .433)" d="M0 0h16v18.133H0z"/></clipPath></defs></svg><svg viewBox="0 0 16 19" id="tw" xmlns="http://www.w3.org/2000/svg"><path d="M14.355 6.672c.01.142.01.284.01.426 0 4.335-3.299 9.33-9.33 9.33A9.267 9.267 0 010 14.956c.264.03.518.04.792.04a6.567 6.567 0 004.071-1.4 3.285 3.285 0 01-3.066-2.274c.203.03.406.05.62.05.294 0 .588-.04.862-.111A3.28 3.28 0 01.65 8.042v-.04c.437.244.945.396 1.483.416A3.277 3.277 0 01.67 5.688c0-.61.162-1.168.447-1.656a9.321 9.321 0 006.761 3.432 3.702 3.702 0 01-.081-.751 3.278 3.278 0 013.28-3.28c.943 0 1.796.396 2.395 1.036a6.456 6.456 0 002.081-.792 3.27 3.27 0 01-1.441 1.807c.66-.07 1.3-.254 1.888-.508a7.048 7.048 0 01-1.645 1.696z"/></svg><svg viewBox="0 0 20 23" id="vk" xmlns="http://www.w3.org/2000/svg"><path d="M18.567 6.746c.13-.43 0-.746-.628-.746h-2.077c-.53 0-.773.272-.903.574 0 0-1.059 2.513-2.554 4.142-.483.471-.705.622-.97.622-.13 0-.332-.15-.332-.58V6.746c0-.516-.148-.746-.585-.746H7.252c-.332 0-.53.24-.53.464 0 .488.749.602.826 1.977v2.983c0 .654-.12.774-.384.774-.706 0-2.42-2.523-3.436-5.41C3.524 6.226 3.323 6 2.79 6H.712C.12 6 0 6.272 0 6.574c0 .536.705 3.2 3.284 6.72C5.002 15.697 7.42 17 9.622 17c1.323 0 1.485-.289 1.485-.787 0-2.296-.12-2.513.543-2.513.307 0 .836.151 2.07 1.31 1.412 1.375 1.644 1.99 2.434 1.99h2.078c.593 0 .892-.289.72-.86-.396-1.2-3.066-3.667-3.186-3.832-.306-.385-.218-.557 0-.9.004-.004 2.54-3.483 2.801-4.662z"/></svg></svg>